<svg width="53" height="32" viewBox="0 0 53 32" fill="none" xmlns="http://www.w3.org/2000/svg" class="starLogo"><path d="M38.8864 13.7854H32.2035C32.116 13.7854 32.0723 13.7395 32.0506 13.6477L29.9533 7L27.8977 13.6477C27.8756 13.7395 27.8319 13.7854 27.7448 13.7854H21.0605L26.4564 17.9121C26.5148 17.9577 26.5947 17.9577 26.6531 17.9121C28.1384 16.9491 29.4712 16.2614 32.2473 15.5286C29.7129 17.592 27.2226 19.9296 25.1691 22.6345C25.1082 22.7074 25.0636 22.7935 25.0382 22.8867L24.4483 24.7889L29.8441 20.686C29.9316 20.6173 29.9753 20.6173 30.0625 20.686L35.4583 24.7879L33.4051 18.0946C33.383 18.0029 33.4051 17.957 33.4705 17.9114L38.8864 13.7854Z"></path><path d="M44.5625 12.066C45.6546 12.066 46.3537 12.6619 46.3537 13.6477C46.3537 14.6794 45.6546 15.4126 44.5625 15.4126H42.8161V12.066H44.5625ZM45.9387 17.751C47.8173 17.4988 49.3685 15.8025 49.3685 13.6477C49.3685 10.8511 47.5553 9.3153 44.628 9.3153H39.8437V23.3898H42.8161V17.8197L46.3761 23.3898H49.8275L45.9387 17.751ZM22.1322 9.3153H13.2855V12.1578H16.1908V23.3898H19.2272V12.1578H22.1328L22.1322 9.3153ZM7.69675 14.4738C6.84474 14.0611 6.51723 13.6257 6.51723 13.0507C6.51723 12.3858 7.06308 11.8358 7.87136 11.8586C8.6142 11.8817 9.15972 12.2941 9.57539 13.2816L12.1328 12.1119C11.4337 10.2321 10.0138 9.13208 7.71981 9.13208C5.29498 9.13208 3.50382 10.8041 3.50382 13.0518C3.50382 14.5876 4.20292 15.8484 5.99408 16.7873L7.78558 17.7272C8.78915 18.2537 9.26957 18.645 9.26957 19.4241C9.26957 20.2495 8.6142 20.8472 7.78423 20.8472C6.88848 20.8472 6.0802 20.3199 5.70895 19.1278L3 19.9532C3.61028 22.2684 5.42483 23.6207 7.78423 23.6207C10.3399 23.6207 12.306 21.9016 12.306 19.4259C12.306 17.5233 11.3449 16.2398 9.40078 15.2991L7.69675 14.4738Z"></path></svg>