<svg width="51" height="32" viewBox="0 0 51 32" fill="none" xmlns="http://www.w3.org/2000/svg" class="starWarsLogo"><path d="M39.0999 16.3665C38.7829 16.3687 38.4695 16.4298 38.1746 16.5454C37.7721 16.6851 37.4178 16.9336 37.1522 17.2624C36.8867 17.5912 36.7208 17.987 36.6734 18.4043C36.6239 18.9585 36.8064 19.512 37.1021 19.9789C37.193 20.1112 37.2943 20.2363 37.4066 20.3527C37.6261 20.597 37.8523 20.8341 38.0844 21.0618C38.1125 21.0974 38.1583 21.1287 38.1435 21.1854C38.128 21.2421 38.0496 21.2581 37.9942 21.2581H34.2468C34.0916 21.2581 33.8979 21.2254 33.8137 21.0705C33.7952 21.037 33.824 21.0036 33.8506 20.9847C34.2527 20.7454 34.6526 20.464 34.898 20.0574C35.1131 19.696 35.2232 19.2821 35.2158 18.8632C35.2183 18.621 35.1887 18.3794 35.1279 18.1447C34.9944 17.6992 34.7285 17.3033 34.3643 17.0079C33.9615 16.6851 33.4795 16.4722 32.9666 16.3905C32.7444 16.3649 32.5206 16.3552 32.297 16.3614H27.3101V23.9345H30.3457V21.8029L31.9599 23.3781C32.3147 23.725 32.8151 23.877 33.3 23.9323C35.3141 23.9374 37.3283 23.9323 39.3424 23.9323C39.8853 23.9315 40.4112 23.746 40.831 23.4072C41.1651 23.1294 41.4142 22.765 41.548 22.3549C41.6788 21.938 41.7022 21.4956 41.6159 21.0676C41.5411 20.6856 41.3672 20.3291 41.1111 20.0327C40.7977 19.6647 40.4563 19.3229 40.1259 18.9716C40.0948 18.9374 40.0446 18.8981 40.0756 18.8465C40.1066 18.7956 40.1791 18.8152 40.216 18.8152H43.9146V16.36L39.1007 16.3672L39.0999 16.3665ZM32.2526 19.408C32.1122 19.4901 31.94 19.4661 31.7848 19.469H30.3782V18.5069H31.9622C32.1928 18.5069 32.4515 18.6538 32.4773 18.8989C32.5022 18.9965 32.4933 19.0996 32.4521 19.1917C32.4109 19.2839 32.3397 19.36 32.2497 19.408H32.2526ZM24.2959 16.3665H20.0282L17.728 23.9381H20.5906L20.9314 22.8443H23.5368L23.8783 23.9381H26.6552L24.2959 16.3665ZM21.5722 20.7876L22.2345 18.6654L22.8967 20.7876H21.5722ZM7.08008 16.3665H10.18L10.7802 18.4189L11.3796 16.3665H14.5564L15.195 18.4189L15.8336 16.3665H18.7303L18.6416 16.7032L16.4153 23.941H13.8113L12.9096 21.0407L12.0079 23.941H9.43716L7.08008 16.3665ZM40.3032 12.989C40.131 12.9789 39.9374 12.989 39.7888 12.8901C39.7459 12.856 39.6802 12.7803 39.7415 12.7301C40.0593 12.5265 40.386 12.3207 40.6344 12.029C40.9199 11.685 41.0896 11.2621 41.12 10.8189C41.1557 10.446 41.1103 10.0699 40.9869 9.71559C40.807 9.25721 40.4884 8.86424 40.0741 8.58977C39.7279 8.35998 39.3371 8.20324 38.9263 8.1294C38.6912 8.07631 38.448 8.09086 38.2093 8.0894H33.2128V15.6749H36.2476V13.5359C36.2476 13.5359 37.5234 14.7781 37.8567 15.0967C38.1672 15.3905 38.5877 15.5599 38.9979 15.6349C39.2308 15.6683 39.4658 15.6814 39.7009 15.6741H43.9146V12.989H40.3032ZM38.3298 10.9803C38.2862 11.0448 38.2273 11.0978 38.1581 11.1347C38.0889 11.1716 38.0116 11.1912 37.9329 11.192H36.2898V10.2312H37.8759C38.0829 10.2254 38.2729 10.3403 38.3616 10.525C38.3881 10.599 38.399 10.6776 38.3936 10.7559C38.3881 10.8342 38.3664 10.9106 38.3298 10.9803ZM30.356 8.0894H26.0927L23.7926 15.6734H26.6552L26.9967 14.5774H29.6014L29.9429 15.6734H32.7176L30.356 8.0894ZM27.6338 12.517L28.2953 10.3905L28.9576 12.517H27.6338ZM13.0863 8.37595C13.441 8.21231 13.8239 8.0894 14.2179 8.09013H24.8717V10.56L21.553 10.5636V15.6741H18.8234V10.5512H15.277C15.2068 10.5512 15.2246 10.6436 15.263 10.6836C15.5719 10.9978 15.9134 11.3818 16.2165 11.7032C16.4227 11.9243 16.5801 12.1847 16.6806 12.4683C16.8037 12.824 16.849 13.2012 16.8137 13.5752C16.7828 13.8942 16.686 14.2035 16.5291 14.4843C16.3581 14.7965 16.1141 15.0641 15.8172 15.2652C15.5203 15.4662 15.1791 15.5949 14.8217 15.6407C14.6236 15.6625 14.226 15.6727 14.0257 15.6727H7.08082V12.989H13.1602C13.2089 12.989 13.2769 12.989 13.2962 12.933C13.325 12.8596 13.2489 12.8109 13.2075 12.7621C12.951 12.4589 12.6568 12.1832 12.3944 11.8894C12.1062 11.5679 11.9702 11.2109 11.8815 10.8254C11.7966 10.4802 11.8017 10.1195 11.8963 9.77668C11.984 9.4742 12.1354 9.19323 12.3405 8.95194C12.5456 8.71065 12.7999 8.51442 13.087 8.37595H13.0863Z"></path></svg>