<svg width="57" height="32" viewBox="0 0 57 32" fill="none" xmlns="http://www.w3.org/2000/svg" class="disneyLogo"><mask id="mask0_9389_5839" maskUnits="userSpaceOnUse" x="2" y="5" width="21" height="18" style="mask-type: alpha;"><path d="M2.13672 5.86694H22.8606V22.5739H2.13672V5.86694Z" fill="#F9F9F9"></path></mask><g mask="url(#mask0_9389_5839)"><path fill-rule="evenodd" clip-rule="evenodd" d="M3.23295 8.38849C2.61545 8.40667 2.14849 8.13831 2.1368 7.76158C2.12876 7.48667 2.73311 6.62849 3.10141 6.48958C3.35353 6.39504 4.58122 5.93104 6.62664 5.87067C7.38518 5.84813 8.6728 5.94049 9.75945 6.10122C16.0879 7.03431 22.7306 11.8379 22.8585 16.0983C22.9447 18.9972 20.4294 21.7165 15.5186 21.8619C14.3077 21.8983 13.0979 21.7611 11.9262 21.4547C11.9028 22.1667 11.9554 22.5434 10.9418 22.5732C10.3221 22.5921 10.0803 21.5914 9.98891 20.7783C7.02491 19.4692 5.23891 17.3419 5.21334 16.5027C5.17607 15.2518 7.45972 14.2096 10.13 13.7972C10.168 12.7623 10.3441 10.1267 10.8929 10.1099C11.1128 10.1041 11.5703 10.6132 11.7428 11.3929C11.8991 12.1005 11.9152 13.3914 11.9174 13.6212L12.1191 13.6139C15.8665 13.5034 18.1121 14.6692 18.1531 16.0503C18.1852 17.1216 17.2323 17.6699 16.7332 17.6845C16.2341 17.699 15.6487 17.4169 15.6443 17.2627C15.6348 16.9681 16.7098 16.899 16.6959 16.4227C16.674 15.7034 13.6946 15.3885 11.859 15.3769C11.8568 15.9965 11.8487 16.7441 11.8633 17.2467C11.878 17.7296 11.9079 18.9769 11.9233 20.0176C12.7563 20.1921 13.6135 20.2874 14.4546 20.2627C16.4336 20.2045 20.9541 19.4859 20.8533 16.1049C20.7122 11.3819 11.3313 7.04304 6.30657 7.19213C4.32764 7.25031 3.14014 7.46122 3.14599 7.6554C3.14964 7.78413 4.10988 7.83358 4.11718 8.08885C4.12449 8.3434 3.57203 8.37831 3.23295 8.38849ZM10.1095 15.4489C8.23141 15.5885 5.82864 15.9354 5.84911 16.5907C5.86884 17.2758 7.63949 18.5921 9.9648 19.4489C10.073 18.0474 10.1 16.5616 10.1102 15.4489"></path></g><path fill-rule="evenodd" clip-rule="evenodd" d="M24.3125 13.5986C24.6552 13.5892 25.1455 14.3623 25.1616 14.8445C25.1762 15.3274 25.2997 17.8517 25.3355 18.579C25.3721 19.3063 25.3465 20.003 25.2961 20.3252C25.2449 20.6474 25.1207 20.8066 24.5317 20.8226C23.9434 20.8394 23.6694 20.5099 23.619 20.0226C23.5693 19.5354 23.5254 18.1535 23.551 17.4605C23.5766 16.7681 23.6117 15.443 23.7074 14.6132C23.8038 13.7841 24.0399 13.6059 24.3125 13.5986ZM22.8348 10.6255C22.7879 10.5381 22.764 10.4403 22.7654 10.3412C22.7566 10.0343 23.2791 8.859 24.5923 8.763C24.2576 8.99573 23.92 9.29391 23.5839 9.675C23.2696 10.0343 23.019 10.3499 22.8348 10.6255ZM23.9807 11.259C24.2511 10.8714 25.6578 8.96227 27.1062 8.91864C27.5315 8.90555 27.6433 9.17246 27.6521 9.467C27.666 9.92591 26.846 11.2677 24.9994 11.3237C24.6585 11.3354 24.3173 11.3137 23.9807 11.259ZM27.305 7.93318C27.2151 7.70555 26.914 7.24591 25.839 7.27864C23.4962 7.34845 21.6948 9.10845 21.735 10.4946C21.7482 10.9455 21.963 11.3397 22.278 11.6634C22.1954 11.8903 22.1874 12.0415 22.1903 12.1281C22.1976 12.3688 22.5542 13.0045 22.829 12.9965C23.0606 12.9892 23.2192 12.7688 23.4428 12.4117C23.825 12.5615 24.205 12.6372 24.5076 12.6285C26.7094 12.5623 28.7073 10.4685 28.6686 9.13027C28.6503 8.51355 28.2564 7.91791 27.305 7.93318ZM30.2068 13.3026C31.5259 13.2634 33.1789 13.4357 33.1913 13.8612C33.1986 14.1099 33.0693 14.6292 32.3655 14.7012C31.5354 14.7863 27.3473 14.9652 27.3627 15.4866C27.3707 15.7623 28.6291 15.8234 29.7837 15.8939C30.969 15.9666 32.8741 16.011 32.9311 17.9463C32.9757 19.4735 32.4028 19.7965 32.1441 19.9179C31.8167 20.0728 30.7162 20.4946 29.8721 20.5194C27.3291 20.5957 26.2804 19.123 26.2585 18.3739C26.2388 17.7085 26.9169 17.1186 28.0584 17.0845C29.1984 17.0503 30.9661 17.4655 30.98 17.9383C30.991 18.3215 30.212 18.5186 29.867 18.5295C28.3105 18.5761 28.3865 17.9383 27.4891 17.9652C26.9776 17.9797 26.2614 19.075 28.822 18.9979C31.1042 18.9303 31.7963 18.1717 31.7838 17.7645C31.7678 17.2255 30.1301 16.9623 29.183 16.9135C28.236 16.8634 26.8153 16.8699 26.3294 16.5608C25.8449 16.2517 25.9128 15.5521 26.0809 14.9732C26.4317 13.7637 28.8871 13.3426 30.2068 13.3026ZM34.9174 13.9157C35.8016 13.8888 37.6548 17.9063 37.9669 17.8968C38.2796 17.8881 38.0473 16.9586 37.85 15.9325C37.4035 13.611 36.7078 12.4139 37.3618 12.3943C37.8441 12.3797 39.4299 13.9172 39.5176 16.8932C39.5592 18.275 39.3648 20.0837 38.1152 20.1208C36.9314 20.1565 35.5816 16.4081 35.2747 16.4168C35.1096 16.4219 35.0957 18.739 35.0518 19.4379C35.008 20.1368 34.7646 20.5106 34.3759 20.5215C33.7869 20.5397 33.5282 19.9739 33.4953 18.8575C33.4617 17.7419 33.8271 13.9485 34.9174 13.9157ZM43.6457 16.2866C44.0798 16.2743 44.4634 16.2052 44.4254 16.7455C44.3867 17.2866 44.3626 17.5041 43.9102 17.5165L41.59 17.5826C41.5133 17.8299 41.3145 18.4677 41.2254 18.7368C41.1136 19.0743 41.4665 19.0001 41.9211 18.875C42.3763 18.7514 43.6113 18.5281 44.1185 18.5135C44.6264 18.499 45.0049 19.2743 44.7133 19.5405C44.4218 19.8074 42.8521 21.0772 41.2137 21.1245C40.5107 21.1441 39.5563 20.5557 39.5241 19.5012C39.5066 18.9426 39.7405 18.1928 39.9648 17.611C39.91 17.5783 39.8683 17.5019 39.8362 17.3339C39.7631 16.9543 39.5848 16.5375 40.2432 16.4655C40.3089 16.4588 40.3747 16.453 40.4405 16.4481L40.9842 15.3739C40.7919 15.3518 40.6037 15.3029 40.4252 15.2285C40.0255 15.0466 39.7142 14.5746 39.7076 14.3637C39.693 13.9012 43.2328 13.6241 44.052 13.6008C44.9326 13.5761 45.1825 13.739 45.4638 14.1245C45.7445 14.5092 45.8512 14.7812 45.8541 14.8866C45.8577 14.9921 45.7554 15.2532 44.6922 15.2837C44.1477 15.299 43.2679 15.387 42.4238 15.4168L42.0563 16.3557C42.8776 16.3172 43.6457 16.2866 43.6457 16.2866ZM48.6332 18.9092C49.7557 16.7259 50.9132 15.4815 51.321 15.4692C52.0261 15.4481 51.4291 18.6241 48.6332 18.9092ZM46.1457 19.4714C45.2263 21.275 44.6074 23.1877 44.6505 24.627C44.6987 26.2488 45.6999 26.8532 46.0039 26.8445C46.3086 26.835 46.3232 26.3557 46.378 25.9979C46.6549 24.1723 47.1422 22.3846 47.8301 20.6699C48.0712 20.7303 48.3102 20.7586 48.5309 20.7521C50.3951 20.6968 52.556 18.4808 52.4858 16.1215C52.4485 14.8757 51.9699 13.9921 51.1668 14.0161C49.9931 14.0503 48.3051 15.8161 46.9502 18.0321C46.8289 17.1325 47.5422 15.7485 48.1494 14.7805C48.5762 14.1005 48.5016 13.2925 48.3248 13.2968C48.0763 13.3048 45.6707 15.3303 45.754 18.1085C45.77 18.6488 45.9111 19.1012 46.1457 19.4714Z"></path></svg>