<svg width="57" height="32" viewBox="0 0 57 32" fill="none" xmlns="http://www.w3.org/2000/svg" class="huluLogo"><path opacity="0.9" d="M32.9753 21.2145H36.1469V8.11853H32.9753V21.2145ZM27.4069 17.4807C27.4069 17.9411 27.0196 18.3273 26.5585 18.3273H24.7147C24.2536 18.3273 23.8663 17.9411 23.8663 17.4807V12.2022H20.6948V17.7382C20.6948 20.0007 22.1512 21.1963 24.2902 21.1963H27.3886C29.3617 21.1963 30.5602 19.7803 30.5602 17.7382V12.2022H27.3886C27.4069 12.2022 27.4069 17.3149 27.4069 17.4807ZM45.2377 12.2022V17.4807C45.2377 17.9411 44.8503 18.3273 44.39 18.3273H42.5455C42.0851 18.3273 41.6978 17.9411 41.6978 17.4807V12.2022H38.5263V17.7382C38.5263 20.0007 39.982 21.1963 42.1217 21.1963H45.2194C47.1925 21.1963 48.3909 19.7803 48.3909 17.7382V12.2022H45.2377ZM14.8493 12.2022H12.8207C12.1017 12.2022 11.7516 12.3862 11.7516 12.3862V8.11853H8.58008V21.1963H11.7326V15.936C11.7326 15.4756 12.1199 15.0894 12.581 15.0894H14.4248C14.8859 15.0894 15.2732 15.4756 15.2732 15.936V21.2145H18.4447V15.5127C18.4447 13.1214 16.8407 12.2022 14.8493 12.2022Z"></path></svg>