<svg width="57" height="32" viewBox="0 0 57 32" fill="none" xmlns="http://www.w3.org/2000/svg" class="marvelLogo"><path opacity="0.9" d="M49.6682 7.55566V24.4437H7.36328V7.55639H49.6675L49.6682 7.55566ZM11.9511 8.85603H8.66113V23.1346H11.2576V16.2524L12.4356 23.136H13.8094L14.9706 16.2524V23.136H19.9588L20.2643 20.9397H22.2724L22.5779 23.136H27.4741V18.5004L28.074 18.4124L29.3163 23.1375H31.8499L30.2188 17.6C31.0139 17.0124 31.9091 15.5549 31.752 14.1258L31.7286 13.9615C31.7286 13.9709 32.1415 16.4342 32.5397 18.8066L32.6216 19.2953L33.1624 22.512L33.2026 22.752L33.2683 23.1469L36.2798 23.1375L38.3391 10.1949V23.1375H43.2258V20.5724H40.9078V17.2931H43.2258V14.6851H40.9078V11.4618H43.2258V8.85821H35.9619L34.7657 17.5557L33.5855 8.85748H30.9598L31.2529 11.1797C30.9474 10.5848 29.879 8.85676 27.5179 8.85676H24.8981L24.8879 21.5338L22.9784 8.85676H19.5467L17.5721 21.9913V8.85748H14.2888L13.1049 16.2349L11.9518 8.85603H11.9511ZM46.2387 8.85457H43.6737V23.1338H48.4384V20.5731H46.2387V8.85457ZM21.2684 12.5768L22.0064 18.6829H20.5588L21.2691 12.5768H21.2684ZM29.195 13.6786C29.1965 14.8349 28.682 15.5644 28.0791 15.8568V15.8626C27.8891 15.9557 27.6794 16.0044 27.4682 16.0058V11.4073H27.4814C27.6845 11.4073 29.195 11.4669 29.195 13.6786Z"></path></svg>