<svg width="56" height="32" viewBox="0 0 56 32" fill="none" xmlns="http://www.w3.org/2000/svg" class="espnLogo"><path fill-rule="evenodd" clip-rule="evenodd" d="M30.4732 21.2443H26.9096L27.7197 14.8065H37.7816C37.7088 15.4938 37.7088 17.1825 34.783 17.1214H30.9866L30.4732 21.2451M38.2186 14.8065H41.8186L41.0186 21.2443H37.3932L38.2186 14.8065ZM45.2026 14.8065H48.8026L48.0026 21.2443H44.3772L45.2026 14.8065ZM15.2063 21.2443H5.92773L6.69137 14.8073H16.0201L15.727 17.1222H9.9641L9.77501 18.3149H15.5823L15.2063 21.2458M16.1692 13.6851H6.81937L7.18301 10.7556H16.535L16.1692 13.6851ZM19.8463 10.7556H35.4266C37.7088 10.7556 38.0906 11.8945 37.9096 13.6851H16.7081C16.9626 11.5331 17.8914 10.7556 19.8463 10.7556ZM22.711 21.2443H15.7597L16.1277 18.3149H23.2186L23.3641 17.1214H18.4608C17.735 17.1651 16.3052 17.1942 16.5779 14.8065H25.3634C26.0732 14.8065 27.1088 15.2043 26.927 16.5425L26.6048 18.8043C26.3066 20.6102 25.1386 21.2443 22.711 21.2443ZM48.927 13.6851H38.3641L38.7088 10.7556H46.8368C48.8732 10.7556 49.1096 11.8945 48.9277 13.6851"></path></svg>